<svg xmlns="http://www.w3.org/2000/svg" xmlns:xlink="http://www.w3.org/1999/xlink" version="1.1" x="0px" y="0px" viewBox="0 0 95 118.75" enable-background="new 0 0 95 95" xml:space="preserve"><g><polygon points="71.912,21.282 68.674,11.319 65.438,21.282 54.962,21.282 63.437,27.44 60.2,37.404 68.674,31.246 77.15,37.404    73.913,27.44 82.389,21.282  "/><polygon points="48.716,28.109 47.486,24.325 46.257,28.109 42.278,28.109 45.497,30.448 44.269,34.232 47.486,31.894    50.705,34.232 49.476,30.448 52.694,28.109  "/><polygon points="67.697,44.207 66.354,40.073 65.01,44.207 60.663,44.207 64.18,46.763 62.836,50.896 66.354,48.341 69.871,50.896    68.527,46.763 72.043,44.207  "/><path d="M5.335,77.79c0,5.631,4.564,10.196,10.195,10.196h37.787c5.631,0,10.195-4.565,10.195-10.196   c0-5.355-4.131-9.737-9.379-10.155c-0.57-4.42-4.339-7.838-8.913-7.838c-0.839,0-1.646,0.123-2.414,0.337   C40.742,54.516,35.36,50.5,29.025,50.5c-8.115,0-14.694,6.579-14.694,14.695c0,0.836,0.086,1.65,0.221,2.448   C9.38,68.136,5.335,72.489,5.335,77.79z"/><path d="M36.561,22.978c0-5.803,1.327-11.295,3.69-16.192c-12.49,6.028-21.105,18.811-21.105,33.607   c0,3.61,0.523,7.096,1.479,10.398c2.472-1.447,5.336-2.291,8.4-2.291c6.385,0,12.209,3.701,14.984,9.366   c0.404-0.046,0.809-0.069,1.211-0.069c4.983,0,9.294,3.374,10.591,8.063c5.155,1.081,9.101,5.453,9.635,10.714   c10.855-2.693,19.843-10.123,24.604-19.988c-4.897,2.364-10.391,3.689-16.192,3.689C53.259,60.275,36.561,43.577,36.561,22.978z"/></g><text x="0" y="110" fill="#000000" font-size="5px" font-weight="bold" font-family="'Helvetica Neue', Helvetica, Arial-Unicode, Arial, Sans-serif">Created by Guilherme Furtado</text><text x="0" y="115" fill="#000000" font-size="5px" font-weight="bold" font-family="'Helvetica Neue', Helvetica, Arial-Unicode, Arial, Sans-serif">from the Noun Project</text></svg>