<svg width="7" height="7" viewBox="0 0 7 7" fill="none" xmlns="http://www.w3.org/2000/svg">
<path d="M0.159649 0.159649C0.372508 -0.0532074 0.717637 -0.0532164 0.930503 0.159649L3.5 2.72915L6.0695 0.159649C6.28237 -0.0532146 6.62748 -0.0532183 6.84035 0.159649C7.05321 0.372508 7.05322 0.717629 6.84035 0.930495L4.27085 3.5L6.84036 6.06949C7.05322 6.28236 7.05321 6.62749 6.84035 6.84036C6.62748 7.05323 6.28237 7.05321 6.0695 6.84036L3.5 4.27085L0.930501 6.84036C0.717637 7.05321 0.372509 7.05321 0.159651 6.84036C-0.0532185 6.62749 -0.0532149 6.28236 0.159651 6.06949L2.72915 3.5L0.159651 0.930495C-0.0532131 0.717631 -0.0532203 0.372521 0.159649 0.159649Z" fill="white"/>
</svg>
