<svg width="20" height="23" viewBox="0 0 20 23" fill="none" xmlns="http://www.w3.org/2000/svg">
<path d="M9.78141 22.9C7.08249 22.9 6.01927 21.1007 5.77391 19.6286H0.784986C0.457843 19.6286 0.1307 19.465 0.048914 19.1379C-0.0328717 18.8107 -0.0328715 18.4836 0.212486 18.2382C0.212486 18.2382 2.4207 15.9482 2.4207 12.2679C2.4207 9.89607 2.4207 3.02607 8.96356 2.45357V0.817857C8.96356 0.327143 9.2907 0 9.78141 0C10.2721 0 10.5993 0.327143 10.5993 0.817857V2.45357C17.1421 2.94429 17.1421 9.89607 17.1421 12.2679C17.1421 15.9482 19.3503 18.2382 19.3503 18.2382C19.5957 18.4836 19.6775 18.8107 19.5139 19.1379C19.4321 19.465 19.105 19.6286 18.7778 19.6286H13.7889C13.5436 21.1007 12.4803 22.9 9.78141 22.9ZM7.49141 19.6286C7.73677 20.3646 8.30927 21.2643 9.78141 21.2643C11.3353 21.2643 11.9078 20.3646 12.0714 19.6286H7.49141ZM6.50999 17.9929H17.1421C16.4061 16.7661 15.5064 14.8032 15.5064 12.2679C15.5064 6.62464 13.7071 4.08929 9.78141 4.08929C5.8557 4.08929 4.05641 6.62464 4.05641 12.2679C4.05641 14.8032 3.15677 16.7661 2.4207 17.9929H6.50999Z" fill="black"/>
</svg>
