<svg width="22" height="22" viewBox="0 0 22 22" fill="none" xmlns="http://www.w3.org/2000/svg">
<path fill-rule="evenodd" clip-rule="evenodd" d="M20.1662 8.25C20.1665 6.13255 20.1667 4.58705 20.1667 4.58705C20.1667 4.58641 19.0715 4.58586 17.4167 4.5854V5.49731C17.4167 6.00506 17.0098 6.41667 16.5 6.41667C15.9937 6.41667 15.5833 6.00551 15.5833 5.49731V4.58496C12.7835 4.58438 9.21567 4.58397 6.41667 4.5837V5.49731C6.41667 6.00506 6.00979 6.41667 5.5 6.41667C4.99374 6.41667 4.58333 6.00551 4.58333 5.49731V4.58354C2.93099 4.5834 1.83787 4.58333 1.83787 4.58333C1.83693 4.58333 1.83614 6.13064 1.83548 8.25H20.1662ZM20.1659 10.0833H1.83498C1.8339 14.5676 1.83333 20.163 1.83333 20.163C1.83333 20.1656 20.1621 20.1667 20.1621 20.1667C20.1639 20.1667 20.1652 14.5682 20.1659 10.0833ZM17.4167 2.75H20.1621C21.1772 2.75 22 3.57099 22 4.58705V20.163C22 21.1775 21.1777 22 20.1621 22H1.83787C0.822841 22 0 21.179 0 20.163V4.58705C0 3.57248 0.822274 2.75 1.83787 2.75H4.58333V0.919352C4.58333 0.411608 4.99021 0 5.5 0C6.00626 0 6.41667 0.411153 6.41667 0.919352V2.75H15.5833V0.919352C15.5833 0.411608 15.9902 0 16.5 0C17.0063 0 17.4167 0.411153 17.4167 0.919352V2.75Z" fill="black"/>
</svg>
