<svg width="24" height="24" viewBox="0 0 24 24" fill="none" xmlns="http://www.w3.org/2000/svg">
<path d="M12 0C5.3832 0 0 5.3832 0 12C0 18.6168 5.3832 24 12 24C18.6168 24 24 18.6168 24 12C24 5.3832 18.6168 0 12 0ZM12 22.6667C6.1184 22.6667 1.33333 17.8816 1.33333 12C1.33333 6.1184 6.1184 1.33333 12 1.33333C17.8816 1.33333 22.6667 6.1184 22.6667 12C22.6667 17.8816 17.8816 22.6667 12 22.6667Z" fill="black"/>
<path d="M16.0011 11.3343H12.6678V8.00094C12.6678 7.63267 12.3694 7.33427 12.0011 7.33427C11.6329 7.33427 11.3345 7.63267 11.3345 8.00094V11.3343H8.00114C7.63287 11.3343 7.33447 11.6327 7.33447 12.0009C7.33447 12.3692 7.63287 12.6676 8.00114 12.6676H11.3345V16.0009C11.3345 16.3692 11.6329 16.6676 12.0011 16.6676C12.3694 16.6676 12.6678 16.3692 12.6678 16.0009V12.6676H16.0011C16.3694 12.6676 16.6678 12.3692 16.6678 12.0009C16.6678 11.6327 16.3694 11.3343 16.0011 11.3343Z" fill="black"/>
</svg>
