<svg width="18" height="18" viewBox="0 0 18 18" fill="none" xmlns="http://www.w3.org/2000/svg">
<path fill-rule="evenodd" clip-rule="evenodd" d="M13.1454 11.8472L17.7323 16.4341C18.0891 16.7909 18.0903 17.3683 17.7293 17.7293C17.3708 18.0878 16.7844 18.0826 16.4341 17.7323L11.8472 13.1454C8.96628 15.3876 4.79901 15.1846 2.15093 12.5365C-0.716976 9.66862 -0.716976 5.01883 2.15093 2.15093C5.01883 -0.716976 9.66862 -0.716976 12.5365 2.15093C15.1846 4.79901 15.3876 8.96628 13.1454 11.8472ZM11.2383 11.2383C13.3893 9.0874 13.3893 5.60005 11.2383 3.44913C9.0874 1.2982 5.60005 1.2982 3.44913 3.44913C1.2982 5.60005 1.2982 9.0874 3.44913 11.2383C5.60005 13.3893 9.0874 13.3893 11.2383 11.2383Z" fill="#2E2E2E"/>
</svg>
