<svg width="22" height="22" viewBox="0 0 22 22" xmlns="http://www.w3.org/2000/svg">
<path d="M3.21756 3.22317C1.63191 4.81116 0.533606 6.88651 0.162842 9.10409C-0.0190417 10.1931 -0.0563513 11.296 0.0905551 12.392C0.242125 13.5393 0.556925 14.6352 1.04428 15.6846C2.00034 17.7483 3.65129 19.5041 5.63802 20.6094C7.55946 21.6797 9.81436 22.1648 12.0063 21.9502C13.1023 21.843 14.1702 21.5935 15.1869 21.1667C16.2876 20.7074 17.2903 20.0918 18.1973 19.3129C19.9019 17.8485 21.1378 15.8338 21.6741 13.6512C22.1965 11.5222 22.0845 9.22535 21.3104 7.17099C20.4826 4.97906 18.9902 3.09725 17.0361 1.80308C15.1963 0.583524 12.9647 -0.0484066 10.7564 0.00289402C8.54117 0.0541947 6.33524 0.777067 4.54671 2.09223C4.07568 2.43734 3.6303 2.81044 3.21756 3.22317C2.95873 3.48201 2.94007 3.95771 3.21756 4.21188C3.49738 4.46838 3.92878 4.48704 4.20626 4.21188C4.44878 3.96937 4.70295 3.73851 4.96645 3.52165C5.02708 3.47268 5.09003 3.42371 5.15066 3.37474C5.24394 3.30013 4.99909 3.48901 5.14367 3.38174C5.17165 3.36075 5.1973 3.3421 5.22528 3.32111C5.36053 3.22084 5.49578 3.12524 5.63569 3.03196C6.17434 2.67286 6.74798 2.36506 7.34493 2.11322C7.28897 2.13653 7.233 2.15985 7.17704 2.18317C8.01184 1.83339 8.89095 1.59321 9.78871 1.46963C9.72575 1.47895 9.66512 1.48595 9.60216 1.49528C10.5256 1.37169 11.463 1.37169 12.3864 1.49528C12.3234 1.48595 12.2628 1.47895 12.1998 1.46963C13.0976 1.59321 13.9767 1.83339 14.8115 2.18317C14.7555 2.15985 14.6996 2.13653 14.6436 2.11322C15.1077 2.30909 15.5577 2.53761 15.9891 2.80111C16.2083 2.93403 16.4205 3.07394 16.628 3.22317C16.6816 3.26282 16.7376 3.30246 16.7912 3.3421C16.8355 3.37475 16.9988 3.50766 16.8099 3.35609C16.9148 3.44004 17.0221 3.52398 17.1247 3.61259C17.5281 3.95071 17.9035 4.32148 18.251 4.71789C18.3326 4.81116 18.4142 4.90677 18.4935 5.00471C18.5355 5.05601 18.5774 5.10964 18.6194 5.16327C18.687 5.24722 18.5728 5.10264 18.5728 5.10264C18.6008 5.13762 18.6264 5.17493 18.6544 5.20991C18.8083 5.41511 18.9529 5.62731 19.0904 5.84184C19.3959 6.3222 19.6617 6.83054 19.8833 7.35521C19.86 7.29924 19.8366 7.24328 19.8133 7.18732C20.1631 8.02212 20.4033 8.90122 20.5269 9.79898C20.5175 9.73602 20.5105 9.6754 20.5012 9.61244C20.6248 10.5358 20.6248 11.4733 20.5012 12.3967C20.5105 12.3337 20.5175 12.2731 20.5269 12.2101C20.4033 13.1079 20.1631 13.987 19.8133 14.8218C19.8366 14.7658 19.86 14.7099 19.8833 14.6539C19.6874 15.1179 19.4589 15.568 19.1954 15.9994C19.0625 16.2186 18.9226 16.4308 18.7733 16.6383C18.7337 16.6919 18.694 16.7479 18.6544 16.8015C18.6217 16.8458 18.4888 17.0091 18.6404 16.8202C18.5565 16.9251 18.4725 17.0324 18.3839 17.135C18.0458 17.5384 17.675 17.9138 17.2786 18.2613C17.1853 18.3429 17.0897 18.4245 16.9918 18.5038C16.9405 18.5457 16.8869 18.5877 16.8332 18.6297C16.7493 18.6973 16.8938 18.5831 16.8938 18.5831C16.8589 18.611 16.8216 18.6367 16.7866 18.6647C16.5814 18.8186 16.3692 18.9631 16.1546 19.1007C15.6743 19.4062 15.1659 19.672 14.6413 19.8936C14.6972 19.8702 14.7532 19.8469 14.8092 19.8236C13.9744 20.1734 13.0953 20.4136 12.1975 20.5371C12.2605 20.5278 12.3211 20.5208 12.3841 20.5115C11.4606 20.6351 10.5232 20.6351 9.59983 20.5115C9.66279 20.5208 9.72342 20.5278 9.78638 20.5371C8.88861 20.4136 8.00951 20.1734 7.17471 19.8236C7.23067 19.8469 7.28663 19.8702 7.3426 19.8936C6.87856 19.6977 6.42852 19.4692 5.99712 19.2057C5.77793 19.0727 5.56573 18.9328 5.3582 18.7836C5.30456 18.7439 5.2486 18.7043 5.19497 18.6647C5.15066 18.632 4.98743 18.4991 5.17631 18.6507C5.07138 18.5667 4.96412 18.4828 4.86151 18.3942C4.4581 18.0561 4.08268 17.6853 3.73523 17.2889C3.65362 17.1956 3.572 17.1 3.49272 17.0021C3.45075 16.9508 3.40877 16.8971 3.3668 16.8435C3.29918 16.7595 3.41344 16.9041 3.41344 16.9041C3.38545 16.8691 3.3598 16.8318 3.33182 16.7969C3.17792 16.5917 3.03335 16.3795 2.89577 16.1649C2.5903 15.6846 2.32446 15.1762 2.10294 14.6516C2.12626 14.7075 2.14958 14.7635 2.17289 14.8195C1.82312 13.9846 1.58294 13.1055 1.45935 12.2078C1.46868 12.2707 1.47567 12.3314 1.485 12.3943C1.36141 11.4709 1.36141 10.5335 1.485 9.6101C1.47567 9.67306 1.46868 9.73369 1.45935 9.79665C1.58294 8.89889 1.82312 8.01978 2.17289 7.18498C2.14958 7.24095 2.12626 7.29691 2.10294 7.35288C2.35478 6.75592 2.66258 6.18229 3.02169 5.64363C3.11496 5.50372 3.21057 5.36847 3.31084 5.23323C3.33182 5.20525 3.35048 5.17959 3.37146 5.15161C3.47873 5.00937 3.28985 5.25421 3.36447 5.15861C3.41344 5.09565 3.46241 5.03502 3.51137 4.97439C3.72824 4.70856 3.95909 4.45672 4.2016 4.21421C4.46044 3.95537 4.48142 3.47968 4.2016 3.22551C3.92644 2.96667 3.49272 2.94569 3.21756 3.22317Z" fill="black"/>
<path d="M10.3204 10.326C10.1478 10.5125 10.0429 10.7411 10.0406 10.9999C10.0406 11.2494 10.1432 11.4966 10.3204 11.6738C10.6818 12.0399 11.3044 12.0399 11.6682 11.6738C12.032 11.3054 12.0366 10.6944 11.6682 10.326C11.491 10.1488 11.2438 10.0462 10.9943 10.0462C10.7354 10.0485 10.5093 10.1534 10.3204 10.326C10.1921 10.4449 10.1152 10.6478 10.1152 10.8203C10.1152 10.9929 10.1921 11.1958 10.3204 11.3147C10.6095 11.5805 11.0223 11.5805 11.3091 11.3147C11.3184 11.3054 11.3301 11.296 11.3394 11.289C11.2928 11.3264 11.2461 11.3613 11.1972 11.3986C11.2135 11.387 11.2298 11.3777 11.2485 11.3707C11.1925 11.394 11.1365 11.4173 11.0806 11.4406C11.0992 11.4336 11.1179 11.429 11.1365 11.4243C11.0736 11.4336 11.0129 11.4406 10.95 11.4499C10.9756 11.4476 11.0013 11.4476 11.0269 11.4499C10.964 11.4406 10.9033 11.4336 10.8404 11.4243C10.8614 11.429 10.8777 11.4336 10.8963 11.4406C10.8404 11.4173 10.7844 11.394 10.7285 11.3707C10.7471 11.38 10.7634 11.3893 10.7798 11.3986C10.7331 11.3613 10.6865 11.3264 10.6375 11.289C10.6608 11.3054 10.6772 11.324 10.6958 11.3473C10.6585 11.3007 10.6235 11.2541 10.5862 11.2051C10.5979 11.2214 10.6072 11.2377 10.6142 11.2564C10.5909 11.2004 10.5676 11.1445 10.5442 11.0885C10.5512 11.1072 10.5559 11.1258 10.5606 11.1445C10.5512 11.0815 10.5442 11.0209 10.5349 10.9579C10.5372 10.9836 10.5372 11.0092 10.5349 11.0349C10.5442 10.9719 10.5512 10.9113 10.5606 10.8483C10.5559 10.8693 10.5512 10.8856 10.5442 10.9043C10.5676 10.8483 10.5909 10.7924 10.6142 10.7364C10.6049 10.7551 10.5955 10.7714 10.5862 10.7877C10.6235 10.7411 10.6585 10.6944 10.6958 10.6455C10.6795 10.6688 10.6608 10.6851 10.6375 10.7038C10.6841 10.6664 10.7308 10.6315 10.7798 10.5942C10.7634 10.6058 10.7471 10.6151 10.7285 10.6221C10.7844 10.5988 10.8404 10.5755 10.8963 10.5522C10.8777 10.5592 10.859 10.5638 10.8404 10.5685C10.9033 10.5592 10.964 10.5522 11.0269 10.5429C11.0013 10.5452 10.9756 10.5452 10.95 10.5429C11.0129 10.5522 11.0736 10.5592 11.1365 10.5685C11.1155 10.5638 11.0992 10.5592 11.0806 10.5522C11.1365 10.5755 11.1925 10.5988 11.2485 10.6221C11.2298 10.6128 11.2135 10.6035 11.1972 10.5942C11.2438 10.6315 11.2904 10.6664 11.3394 10.7038C11.3161 10.6874 11.2998 10.6688 11.2811 10.6455C11.3184 10.6921 11.3534 10.7387 11.3907 10.7877C11.379 10.7714 11.3697 10.7551 11.3627 10.7364C11.386 10.7924 11.4094 10.8483 11.4327 10.9043C11.4257 10.8856 11.421 10.867 11.4163 10.8483C11.4257 10.9113 11.4327 10.9719 11.442 11.0349C11.4397 11.0092 11.4397 10.9836 11.442 10.9579C11.4327 11.0209 11.4257 11.0815 11.4163 11.1445C11.421 11.1235 11.4257 11.1072 11.4327 11.0885C11.4094 11.1445 11.386 11.2004 11.3627 11.2564C11.372 11.2377 11.3814 11.2214 11.3907 11.2051C11.3534 11.2517 11.3184 11.2984 11.2811 11.3473C11.2881 11.3357 11.2974 11.3264 11.3068 11.317C11.4327 11.1818 11.512 11.0092 11.512 10.8227C11.512 10.6501 11.435 10.4473 11.3068 10.3283C11.1738 10.2071 10.9989 10.1161 10.8124 10.1231C10.6352 10.1301 10.4486 10.1907 10.3204 10.326Z" fill="black"/>
<path d="M5.72197 17.1326C5.9878 17.0324 6.25597 16.9344 6.5218 16.8342C7.16072 16.5963 7.79965 16.3585 8.43857 16.1206C9.20575 15.8338 9.97526 15.5493 10.7424 15.2625C11.3977 15.0177 12.0506 14.7752 12.7059 14.5303C13.0043 14.4184 13.3051 14.3111 13.6013 14.1969C13.6036 14.1969 13.6036 14.1969 13.6059 14.1945C13.7529 14.1362 13.8718 14.0709 13.9697 13.9427C14.028 13.8681 14.0607 13.7934 14.0956 13.7048C14.098 13.6978 14.1003 13.6932 14.1026 13.6862C14.1166 13.6465 14.1329 13.6092 14.1469 13.5696C14.2122 13.3994 14.2752 13.2315 14.3405 13.0612C14.5713 12.4573 14.7999 11.851 15.0307 11.2471C15.3199 10.4846 15.6113 9.72204 15.9005 8.95719C16.1617 8.27163 16.4228 7.58607 16.684 6.89817C16.8262 6.52508 16.9685 6.14965 17.1107 5.77655C17.1177 5.76023 17.1247 5.74158 17.1294 5.72525C17.3113 5.24722 16.7469 4.68292 16.2689 4.8648C16.0054 4.96507 15.7443 5.06534 15.4808 5.16561C14.8488 5.40579 14.2169 5.64597 13.585 5.88615C12.8201 6.17763 12.0529 6.46911 11.2881 6.76059C10.6235 7.01243 9.95894 7.2666 9.29436 7.51844C8.96557 7.64436 8.63678 7.76562 8.30799 7.89387C8.30333 7.8962 8.29633 7.89853 8.29167 7.90087C8.20306 7.93584 8.12844 7.96849 8.05382 8.02679C7.9279 8.12472 7.86028 8.24365 7.80198 8.39055C7.80198 8.39289 7.80198 8.39289 7.79965 8.39522C7.78799 8.4232 7.77866 8.45351 7.767 8.4815C7.70871 8.6354 7.65274 8.79163 7.59445 8.94553C7.37525 9.53549 7.15373 10.1254 6.93453 10.7177C6.65005 11.4803 6.36556 12.2428 6.08108 13.0053C5.82224 13.6978 5.56574 14.3904 5.3069 15.083C5.16466 15.463 5.02475 15.8408 4.88251 16.2209C4.87551 16.2396 4.86852 16.2559 4.86385 16.2745C4.80323 16.4354 4.84986 16.6709 4.93381 16.8132C5.01776 16.9578 5.18565 17.0977 5.35121 17.135C5.74762 17.2259 6.07408 17.0137 6.21166 16.6453C6.3096 16.3841 6.40754 16.1206 6.50547 15.8595C6.73866 15.2345 6.97184 14.6073 7.20503 13.9823C7.48951 13.2221 7.77167 12.462 8.05615 11.6994C8.301 11.0442 8.54351 10.3889 8.78835 9.73603C8.90728 9.41657 9.03553 9.09944 9.14512 8.77531C9.14746 8.77065 9.14746 8.76598 9.14979 8.76132C8.98656 8.92455 8.82333 9.08778 8.6601 9.25101C8.92593 9.15074 9.18943 9.05047 9.45526 8.94787C10.0872 8.70769 10.7215 8.4675 11.3534 8.22499C12.1229 7.93351 12.8924 7.6397 13.6619 7.34822C14.3265 7.09638 14.9934 6.84221 15.658 6.59037C15.9798 6.46911 16.3062 6.35485 16.6257 6.22194C16.6304 6.2196 16.635 6.21727 16.6397 6.21727C16.3529 5.93045 16.066 5.64364 15.7792 5.35682C15.679 5.62265 15.5787 5.88615 15.4761 6.15198C15.2359 6.78391 14.9957 7.41817 14.7532 8.0501C14.4617 8.81961 14.1679 9.58912 13.8764 10.3586C13.6246 11.0232 13.3704 11.6901 13.1186 12.3547C12.9973 12.6765 12.8644 12.996 12.7502 13.3224C12.7478 13.3271 12.7455 13.3317 12.7455 13.3364C12.9087 13.1732 13.072 13.0099 13.2352 12.8467C12.974 12.9447 12.7105 13.0426 12.4494 13.1405C11.8244 13.3737 11.1972 13.6069 10.5722 13.8401C9.81203 14.1246 9.05185 14.4067 8.28934 14.6912C7.63409 14.936 6.97884 15.1786 6.32592 15.4234C6.00646 15.5423 5.68466 15.6589 5.3652 15.7802C5.36054 15.7825 5.35587 15.7825 5.35121 15.7848C5.17632 15.8501 5.02941 15.9411 4.93381 16.1066C4.8452 16.2559 4.80789 16.4774 4.86385 16.6453C4.97112 16.9811 5.35587 17.2702 5.72197 17.1326Z" fill="black"/>
</svg>
