<svg width="56" height="56" viewBox="0 0 56 56" fill="none" xmlns="http://www.w3.org/2000/svg">
<rect x="1.5" y="1.5" width="53" height="53" rx="26.5" fill="black" stroke="white" stroke-width="3"/>
<path d="M28 17C27.2076 17 26.5652 17.6424 26.5652 18.4348V26.5652H18.4348C17.6424 26.5652 17 27.2076 17 28C17 28.7924 17.6424 29.4348 18.4348 29.4348H26.5652V37.5652C26.5652 38.3576 27.2076 39 28 39C28.7924 39 29.4348 38.3576 29.4348 37.5652V29.4348H37.5652C38.3576 29.4348 39 28.7924 39 28C39 27.2076 38.3576 26.5652 37.5652 26.5652H29.4348V18.4348C29.4348 17.6424 28.7924 17 28 17Z" fill="white"/>
</svg>
