<svg width="32" height="32" viewBox="0 0 32 32" fill="none" xmlns="http://www.w3.org/2000/svg">
<path fill-rule="evenodd" clip-rule="evenodd" d="M16 0C7.1558 0 0 7.15578 0 16C0 24.8442 7.1558 32 16 32C24.8442 32 32 24.8442 32 16C32 7.15578 24.8442 0 16 0ZM20.7035 19.3367C21.0653 19.7387 21.0653 20.3417 20.7035 20.7437C20.5025 20.9447 20.2613 21.0251 20.0201 21.0251C19.7789 21.0251 19.5377 20.9447 19.3367 20.7437L16.0402 17.4472L12.7438 20.7437C12.5427 20.9447 12.3015 21.0251 12.0603 21.0251C11.8191 21.0251 11.5779 20.9447 11.3769 20.7437C10.9749 20.3417 10.9749 19.7387 11.3769 19.3367L14.6734 16.0402L11.3769 12.7437C10.9749 12.3417 10.9749 11.7387 11.3769 11.3367C11.7387 10.9749 12.3819 10.9749 12.7839 11.3367L16.0804 14.6332L19.3769 11.3367C19.7387 10.9347 20.3819 10.9347 20.784 11.3367C21.1458 11.6985 21.1458 12.3417 20.784 12.7437L17.4874 16.0402L20.7035 19.3367Z" fill="black"/>
</svg>
